<svg width="2815" height="550" xmlns="http://www.w3.org/2000/svg" xmlns:xlink="http://www.w3.org/1999/xlink" xml:space="preserve" overflow="hidden"><defs><clipPath id="clip0"><rect x="792" y="962" width="2815" height="550"/></clipPath><clipPath id="clip1"><rect x="797" y="966" width="2806" height="543"/></clipPath><clipPath id="clip2"><rect x="797" y="966" width="2806" height="543"/></clipPath><clipPath id="clip3"><rect x="797" y="966" width="2806" height="543"/></clipPath></defs><g clip-path="url(#clip0)" transform="translate(-792 -962)"><rect x="798.5" y="967.5" width="2805" height="541" stroke="#2F528F" stroke-width="4.58333" stroke-linecap="butt" stroke-linejoin="miter" stroke-miterlimit="8" stroke-opacity="1" fill="#000000" fill-opacity="1"/><g clip-path="url(#clip1)"><g clip-path="url(#clip2)"><g clip-path="url(#clip3)"><path d="M427.727 0 0 0 0 537.352 427.727 537.352 427.727 428.596 108.408 428.596 108.408 323.662 427.727 323.662 427.727 214.037 108.756 214.037 108.756 109.277 427.727 109.277Z" stroke="#FFFFFF" stroke-width="1.73747" stroke-linecap="butt" stroke-linejoin="miter" stroke-miterlimit="4" stroke-opacity="1" fill="#FFFFFF" fill-rule="nonzero" fill-opacity="1" transform="matrix(1.0003 0 0 1 800.062 967)"/><path d="M434.503 0 434.503 537.352 862.403 537.352 862.403 214.211 645.065 214.211 645.065 324.183 753.647 324.183 753.647 428.769 541 428.769 541 108.408 862.403 108.408 862.403 0Z" stroke="#FFFFFF" stroke-width="1.73747" stroke-linecap="butt" stroke-linejoin="miter" stroke-miterlimit="4" stroke-opacity="1" fill="#366BFF" fill-rule="nonzero" fill-opacity="1" transform="matrix(1.0003 0 0 1 800.062 967)"/><path d="M1033.53 214.558 1144.54 214.558 1144.54 240.792 1064.11 240.792 1064.11 269.631 1140.37 269.631 1140.37 295.691 1064.11 295.691 1064.11 330.09 1147.5 330.09 1147.5 356.323 1033.36 356.323 1033.36 214.558Z" stroke="#FFFFFF" stroke-width="1.73747" stroke-linecap="butt" stroke-linejoin="miter" stroke-miterlimit="4" stroke-opacity="1" fill="#FFFFFF" fill-rule="nonzero" fill-opacity="1" transform="matrix(1.0003 0 0 1 800.062 967)"/><path d="M1174.25 299.861 1174.25 214.385 1205 214.385 1205 298.297C1205 319.492 1216.99 330.785 1235.75 330.785 1254.34 330.785 1266.5 319.666 1266.5 298.297L1266.5 214.385 1297.25 214.385 1297.25 299.861C1297.25 337.387 1272.24 358.756 1235.93 358.756 1199.62 358.756 1174.25 337.387 1174.25 299.861Z" stroke="#FFFFFF" stroke-width="1.73747" stroke-linecap="butt" stroke-linejoin="miter" stroke-miterlimit="4" stroke-opacity="1" fill="#FFFFFF" fill-rule="nonzero" fill-opacity="1" transform="matrix(1.0003 0 0 1 800.062 967)"/><path d="M1332.35 214.558 1393.33 214.558C1435.2 214.558 1457.09 239.055 1457.09 269.458 1457.09 287.699 1447.7 305.246 1430.16 314.628L1459.69 356.497 1424.43 356.497 1402.53 323.141C1398.37 323.836 1394.72 324.183 1390.55 324.183L1363.1 324.183 1363.1 356.323 1332.35 356.323 1332.35 214.558ZM1394.2 297.95C1412.09 297.95 1424.6 285.093 1424.6 269.458 1424.6 253.301 1412.09 240.618 1394.37 240.618L1363.1 240.618 1363.1 297.95 1394.2 297.95Z" stroke="#FFFFFF" stroke-width="1.73747" stroke-linecap="butt" stroke-linejoin="miter" stroke-miterlimit="4" stroke-opacity="1" fill="#FFFFFF" fill-rule="nonzero" fill-opacity="1" transform="matrix(1.0003 0 0 1 800.062 967)"/><path d="M1482.63 285.441C1482.63 244.961 1513.9 212.3 1557.68 212.3 1601.46 212.3 1632.73 244.961 1632.73 285.441 1632.73 326.268 1601.46 358.756 1557.68 358.756 1513.9 358.756 1482.63 326.268 1482.63 285.441ZM1600.94 285.441C1600.94 260.25 1582.69 240.097 1558.02 240.097 1533.35 240.097 1514.59 260.25 1514.59 285.441 1514.59 310.806 1533.01 330.959 1558.02 330.959 1582.69 330.959 1600.94 310.806 1600.94 285.441Z" stroke="#FFFFFF" stroke-width="1.73747" stroke-linecap="butt" stroke-linejoin="miter" stroke-miterlimit="4" stroke-opacity="1" fill="#FFFFFF" fill-rule="nonzero" fill-opacity="1" transform="matrix(1.0003 0 0 1 800.062 967)"/><path d="M1659.48 285.441C1659.48 244.961 1690.58 212.3 1734.36 212.3 1754.34 212.3 1771.89 219.249 1784.74 230.542L1765.63 251.39C1755.73 242.703 1745.65 240.271 1734.88 240.271 1710.21 240.271 1691.28 260.424 1691.28 285.615 1691.28 310.979 1709.69 331.132 1734.88 331.132 1748.43 331.132 1759.9 325.052 1767.54 316.886L1767.54 296.039 1743.4 296.039 1743.4 273.627 1795.52 273.627 1795.52 328.874C1783.01 347.463 1760.07 358.929 1734.36 358.929 1690.76 358.929 1659.48 326.268 1659.48 285.441Z" stroke="#FFFFFF" stroke-width="1.73747" stroke-linecap="butt" stroke-linejoin="miter" stroke-miterlimit="4" stroke-opacity="1" fill="#FFFFFF" fill-rule="nonzero" fill-opacity="1" transform="matrix(1.0003 0 0 1 800.062 967)"/><path d="M1831.65 214.558 1892.63 214.558C1934.5 214.558 1956.39 239.055 1956.39 269.458 1956.39 287.699 1947.01 305.246 1929.46 314.628L1959 356.497 1923.73 356.497 1901.84 323.141C1897.67 323.836 1894.02 324.183 1889.85 324.183L1862.4 324.183 1862.4 356.323 1831.65 356.323 1831.65 214.558ZM1893.33 297.95C1911.22 297.95 1923.73 285.093 1923.73 269.458 1923.73 253.301 1911.22 240.618 1893.5 240.618L1862.23 240.618 1862.23 297.95 1893.33 297.95Z" stroke="#FFFFFF" stroke-width="1.73747" stroke-linecap="butt" stroke-linejoin="miter" stroke-miterlimit="4" stroke-opacity="1" fill="#FFFFFF" fill-rule="nonzero" fill-opacity="1" transform="matrix(1.0003 0 0 1 800.062 967)"/><path d="M2036.83 214.558 2067.06 214.558 2128.91 356.497 2097.81 356.497 2088.25 333.912 2016.15 333.912 2006.6 356.497 1975.33 356.497 2036.83 214.558ZM2078.52 309.937 2062.02 269.458C2057.68 258.686 2052.12 244.44 2051.94 244.093 2051.77 244.614 2046.21 258.686 2041.87 269.458L2025.36 309.937 2078.52 309.937Z" stroke="#FFFFFF" stroke-width="1.73747" stroke-linecap="butt" stroke-linejoin="miter" stroke-miterlimit="4" stroke-opacity="1" fill="#FFFFFF" fill-rule="nonzero" fill-opacity="1" transform="matrix(1.0003 0 0 1 800.062 967)"/><path d="M2153.58 214.558 2214.56 214.558C2256.25 214.558 2278.14 239.055 2278.14 269.284 2278.14 299.513 2256.25 324.009 2214.38 324.009L2184.33 324.009 2184.33 356.497 2153.58 356.497 2153.58 214.558ZM2215.77 297.776C2234.01 297.776 2245.83 285.093 2245.83 269.284 2245.83 253.474 2234.01 240.792 2216.12 240.792L2184.33 240.792 2184.33 297.776 2215.77 297.776Z" stroke="#FFFFFF" stroke-width="1.73747" stroke-linecap="butt" stroke-linejoin="miter" stroke-miterlimit="4" stroke-opacity="1" fill="#FFFFFF" fill-rule="nonzero" fill-opacity="1" transform="matrix(1.0003 0 0 1 800.062 967)"/><path d="M2308.72 214.558 2339.47 214.558 2339.47 269.979 2400.1 269.979 2400.1 214.558 2430.85 214.558 2430.85 356.497 2400.1 356.497 2400.1 296.212 2339.47 296.212 2339.47 356.497 2308.72 356.497 2308.72 214.558Z" stroke="#FFFFFF" stroke-width="1.73747" stroke-linecap="butt" stroke-linejoin="miter" stroke-miterlimit="4" stroke-opacity="1" fill="#FFFFFF" fill-rule="nonzero" fill-opacity="1" transform="matrix(1.0003 0 0 1 800.062 967)"/><path d="M2467.51 214.558 2498.26 214.558 2498.26 356.497 2467.51 356.497 2467.51 214.558Z" stroke="#FFFFFF" stroke-width="1.73747" stroke-linecap="butt" stroke-linejoin="miter" stroke-miterlimit="4" stroke-opacity="1" fill="#FFFFFF" fill-rule="nonzero" fill-opacity="1" transform="matrix(1.0003 0 0 1 800.062 967)"/><path d="M2529.88 285.267C2529.88 244.961 2560.98 212.3 2604.76 212.3 2624.22 212.3 2641.76 218.902 2654.44 230.194L2635.68 250.868C2626.13 242.529 2616.22 240.097 2606.49 240.097 2580.61 240.097 2561.85 260.25 2561.85 285.267 2561.85 310.632 2580.26 331.132 2605.45 331.132 2618.66 331.132 2630.64 326.094 2639.33 316.539L2658.44 338.082C2644.89 351.285 2626.47 359.103 2604.76 359.103 2560.98 358.929 2529.88 326.268 2529.88 285.267Z" stroke="#FFFFFF" stroke-width="1.73747" stroke-linecap="butt" stroke-linejoin="miter" stroke-miterlimit="4" stroke-opacity="1" fill="#FFFFFF" fill-rule="nonzero" fill-opacity="1" transform="matrix(1.0003 0 0 1 800.062 967)"/><path d="M2678.59 339.645 2689.71 316.018C2701.18 324.357 2714.73 331.654 2736.45 331.654 2748.26 331.654 2762.68 326.094 2762.68 314.975 2762.68 304.03 2750 301.25 2737.49 298.123 2710.91 292.043 2683.63 283.009 2683.63 253.474 2683.63 226.025 2709.34 212.474 2736.45 212.474 2757.99 212.474 2774.15 218.207 2788.39 227.588L2777.27 251.216C2765.81 243.745 2751.04 239.75 2736.45 239.75 2728.98 239.75 2714.9 242.529 2714.9 253.301 2714.9 262.508 2725.15 265.809 2739.23 269.11 2764.42 275.017 2794.65 284.399 2794.65 314.975 2794.65 345.726 2764.94 358.929 2736.45 358.929 2702.57 358.929 2686.58 345.9 2678.59 339.645Z" stroke="#FFFFFF" stroke-width="1.73747" stroke-linecap="butt" stroke-linejoin="miter" stroke-miterlimit="4" stroke-opacity="1" fill="#FFFFFF" fill-rule="nonzero" fill-opacity="1" transform="matrix(1.0003 0 0 1 800.062 967)"/><path d="M1028.32 486.448C1028.32 455.872 1052.12 431.897 1082.87 431.897 1097.64 431.897 1110.84 437.456 1120.39 446.664L1116.23 451.181C1107.54 442.842 1096.07 438.151 1083.22 438.151 1055.94 438.151 1035.09 459.52 1035.09 486.622 1035.09 513.55 1055.94 535.093 1082.87 535.093 1097.46 535.093 1110.14 529.013 1118.83 519.284L1123.17 523.627C1113.45 534.398 1099.2 541.348 1082.87 541.348 1052.29 541 1028.32 517.025 1028.32 486.448Z" stroke="#FFFFFF" stroke-width="1.73747" stroke-linecap="butt" stroke-linejoin="miter" stroke-miterlimit="4" stroke-opacity="1" fill="#FFFFFF" fill-rule="nonzero" fill-opacity="1" transform="matrix(1.0003 0 0 1 800.062 967)"/><path d="M1158.27 486.448C1158.27 455.872 1182.07 431.897 1212.82 431.897 1243.57 431.897 1267.37 455.872 1267.37 486.448 1267.37 517.025 1243.57 541 1212.82 541 1182.07 541 1158.27 517.025 1158.27 486.448ZM1260.6 486.448C1260.6 459.52 1239.75 437.977 1212.82 437.977 1185.89 437.977 1165.04 459.346 1165.04 486.448 1165.04 513.377 1185.89 534.919 1212.82 534.919 1239.75 534.919 1260.6 513.377 1260.6 486.448Z" stroke="#FFFFFF" stroke-width="1.73747" stroke-linecap="butt" stroke-linejoin="miter" stroke-miterlimit="4" stroke-opacity="1" fill="#FFFFFF" fill-rule="nonzero" fill-opacity="1" transform="matrix(1.0003 0 0 1 800.062 967)"/><path d="M1312.72 433.46 1318.97 433.46 1388.46 521.021C1391.24 524.669 1394.2 529.534 1394.2 529.534L1394.2 433.46 1400.8 433.46 1400.8 539.436 1394.2 539.436 1325.05 452.397C1321.92 448.575 1319.32 443.884 1319.32 443.884L1319.32 539.436 1312.72 539.436 1312.72 433.46Z" stroke="#FFFFFF" stroke-width="1.73747" stroke-linecap="butt" stroke-linejoin="miter" stroke-miterlimit="4" stroke-opacity="1" fill="#FFFFFF" fill-rule="nonzero" fill-opacity="1" transform="matrix(1.0003 0 0 1 800.062 967)"/><path d="M1450.83 433.46 1524.84 433.46 1524.84 439.367 1457.26 439.367 1457.26 478.804 1512.85 478.804 1512.85 484.711 1457.26 484.711 1457.26 539.436 1450.66 539.436 1450.66 433.46Z" stroke="#FFFFFF" stroke-width="1.73747" stroke-linecap="butt" stroke-linejoin="miter" stroke-miterlimit="4" stroke-opacity="1" fill="#FFFFFF" fill-rule="nonzero" fill-opacity="1" transform="matrix(1.0003 0 0 1 800.062 967)"/><path d="M1565.32 433.46 1643.33 433.46 1643.33 439.367 1571.92 439.367 1571.92 478.804 1638.29 478.804 1638.29 484.711 1571.92 484.711 1571.92 533.53 1645.93 533.53 1645.93 539.436 1565.32 539.436 1565.32 433.46Z" stroke="#FFFFFF" stroke-width="1.73747" stroke-linecap="butt" stroke-linejoin="miter" stroke-miterlimit="4" stroke-opacity="1" fill="#FFFFFF" fill-rule="nonzero" fill-opacity="1" transform="matrix(1.0003 0 0 1 800.062 967)"/><path d="M1689.37 433.46 1731.58 433.46C1761.46 433.46 1775.71 451.007 1775.71 472.55 1775.71 489.054 1764.94 503.648 1748.78 509.033L1775.54 539.436 1767.54 539.436 1742.35 510.423C1739.57 510.945 1735.06 511.466 1731.06 511.466L1695.97 511.466 1695.97 539.436 1689.37 539.436 1689.37 433.46ZM1732.8 505.559C1754.17 505.559 1768.76 492.529 1768.76 472.55 1768.76 452.397 1755.56 439.367 1732.97 439.367L1695.79 439.367 1695.79 505.559 1732.8 505.559Z" stroke="#FFFFFF" stroke-width="1.73747" stroke-linecap="butt" stroke-linejoin="miter" stroke-miterlimit="4" stroke-opacity="1" fill="#FFFFFF" fill-rule="nonzero" fill-opacity="1" transform="matrix(1.0003 0 0 1 800.062 967)"/><path d="M1819.84 433.46 1897.84 433.46 1897.84 439.367 1826.44 439.367 1826.44 478.804 1892.81 478.804 1892.81 484.711 1826.44 484.711 1826.44 533.53 1900.45 533.53 1900.45 539.436 1819.84 539.436 1819.84 433.46Z" stroke="#FFFFFF" stroke-width="1.73747" stroke-linecap="butt" stroke-linejoin="miter" stroke-miterlimit="4" stroke-opacity="1" fill="#FFFFFF" fill-rule="nonzero" fill-opacity="1" transform="matrix(1.0003 0 0 1 800.062 967)"/><path d="M1943.71 433.46 1949.96 433.46 2019.46 521.021C2022.24 524.669 2025.19 529.534 2025.19 529.534L2025.19 433.46 2031.79 433.46 2031.79 539.436 2025.19 539.436 1956.04 452.397C1952.92 448.575 1950.31 443.884 1950.31 443.884L1950.31 539.436 1943.71 539.436 1943.71 433.46Z" stroke="#FFFFFF" stroke-width="1.73747" stroke-linecap="butt" stroke-linejoin="miter" stroke-miterlimit="4" stroke-opacity="1" fill="#FFFFFF" fill-rule="nonzero" fill-opacity="1" transform="matrix(1.0003 0 0 1 800.062 967)"/><path d="M2077.13 486.448C2077.13 455.872 2100.94 431.897 2131.69 431.897 2146.45 431.897 2159.66 437.456 2169.21 446.664L2165.04 451.181C2156.36 442.842 2144.89 438.151 2132.03 438.151 2104.76 438.151 2083.91 459.52 2083.91 486.622 2083.91 513.55 2104.76 535.093 2131.69 535.093 2146.28 535.093 2158.96 529.013 2167.65 519.284L2171.99 523.627C2162.26 534.398 2148.02 541.348 2131.69 541.348 2101.11 541 2077.13 517.025 2077.13 486.448Z" stroke="#FFFFFF" stroke-width="1.73747" stroke-linecap="butt" stroke-linejoin="miter" stroke-miterlimit="4" stroke-opacity="1" fill="#FFFFFF" fill-rule="nonzero" fill-opacity="1" transform="matrix(1.0003 0 0 1 800.062 967)"/><path d="M2212.3 433.46 2290.3 433.46 2290.3 439.367 2218.9 439.367 2218.9 478.804 2285.26 478.804 2285.26 484.711 2218.9 484.711 2218.9 533.53 2292.91 533.53 2292.91 539.436 2212.3 539.436 2212.3 433.46Z" stroke="#FFFFFF" stroke-width="1.73747" stroke-linecap="butt" stroke-linejoin="miter" stroke-miterlimit="4" stroke-opacity="1" fill="#FFFFFF" fill-rule="nonzero" fill-opacity="1" transform="matrix(1.0003 0 0 1 800.062 967)"/><path d="M2392.46 533.703C2428.77 507.644 2452.92 482.8 2452.92 461.952 2452.92 447.011 2440.75 437.804 2426.16 437.804 2413.48 437.804 2404.62 444.058 2396.63 453.092L2392.63 448.749C2402.36 436.935 2414.35 431.723 2426.68 431.723 2447.36 431.723 2459.69 445.274 2459.69 461.605 2459.69 488.359 2424.77 517.72 2402.19 533.356L2462.99 533.356 2462.99 539.263 2392.46 539.263 2392.46 533.703Z" stroke="#FFFFFF" stroke-width="1.73747" stroke-linecap="butt" stroke-linejoin="miter" stroke-miterlimit="4" stroke-opacity="1" fill="#FFFFFF" fill-rule="nonzero" fill-opacity="1" transform="matrix(1.0003 0 0 1 800.062 967)"/><path d="M2503.3 486.448C2503.3 454.655 2519.11 431.897 2541.52 431.897 2563.76 431.897 2579.57 454.829 2579.57 486.448 2579.57 518.241 2563.76 541 2541.52 541 2519.11 541 2503.3 518.068 2503.3 486.448ZM2572.96 486.448C2572.96 458.304 2560.11 437.804 2541.52 437.804 2522.93 437.804 2509.9 458.304 2509.9 486.448 2509.9 514.593 2522.76 535.093 2541.52 535.093 2559.93 534.919 2572.96 514.419 2572.96 486.448Z" stroke="#FFFFFF" stroke-width="1.73747" stroke-linecap="butt" stroke-linejoin="miter" stroke-miterlimit="4" stroke-opacity="1" fill="#FFFFFF" fill-rule="nonzero" fill-opacity="1" transform="matrix(1.0003 0 0 1 800.062 967)"/><path d="M2621.96 533.703C2658.27 507.644 2682.42 482.8 2682.42 461.952 2682.42 447.011 2670.25 437.804 2655.66 437.804 2642.98 437.804 2634.12 444.058 2626.13 453.092L2622.13 448.749C2631.86 436.935 2643.85 431.723 2656.18 431.723 2676.86 431.723 2689.19 445.274 2689.19 461.605 2689.19 488.359 2654.27 517.72 2631.69 533.356L2692.49 533.356 2692.49 539.263 2621.96 539.263 2621.96 533.703Z" stroke="#FFFFFF" stroke-width="1.73747" stroke-linecap="butt" stroke-linejoin="miter" stroke-miterlimit="4" stroke-opacity="1" fill="#FFFFFF" fill-rule="nonzero" fill-opacity="1" transform="matrix(1.0003 0 0 1 800.062 967)"/><path d="M2779.18 515.462 2728.63 515.462 2728.63 511.118 2775.54 431.723 2780.75 434.85 2736.45 509.902 2779.18 509.902 2779.18 481.236 2785.44 481.236 2785.44 509.728 2800.03 509.728 2800.03 515.462 2785.44 515.462 2785.44 539.263 2779.18 539.263 2779.18 515.462Z" stroke="#FFFFFF" stroke-width="1.73747" stroke-linecap="butt" stroke-linejoin="miter" stroke-miterlimit="4" stroke-opacity="1" fill="#FFFFFF" fill-rule="nonzero" fill-opacity="1" transform="matrix(1.0003 0 0 1 800.062 967)"/></g></g></g></g></svg>